<svg version="1.1" id="Icons" xmlns="http://www.w3.org/2000/svg" xmlns:xlink="http://www.w3.org/1999/xlink" x="0px" y="0px" viewBox="0 0 32 32" style="enable-background:new 0 0 32 32;" xml:space="preserve">
<style type="text/css">
	.st0{fill:none;stroke:#000000;stroke-width:2;stroke-linecap:round;stroke-linejoin:round;stroke-miterlimit:10;}
	.st1{fill:none;stroke:#000000;stroke-width:2;stroke-linecap:round;stroke-linejoin:round;}
	.st2{fill:none;stroke:#000000;stroke-width:2;stroke-linecap:round;stroke-linejoin:round;stroke-dasharray:6,6;}
	.st3{fill:none;stroke:#000000;stroke-width:2;stroke-linecap:round;stroke-linejoin:round;stroke-dasharray:4,4;}
	.st4{fill:none;stroke:#000000;stroke-width:2;stroke-linecap:round;}
	.st5{fill:none;stroke:#000000;stroke-width:2;stroke-linecap:round;stroke-dasharray:3.1081,3.1081;}
	
		.st6{fill:none;stroke:#000000;stroke-width:2;stroke-linecap:round;stroke-linejoin:round;stroke-miterlimit:10;stroke-dasharray:4,3;}
</style>
<path class="st0" d="M2,29L2,29c4.3,0,8.3-2.4,10.3-6.2L16,16l3.7-6.8c2-3.8,6-6.2,10.3-6.2h0" id="id_101" style="stroke: rgb(188, 195, 216);"></path>
<line class="st0" x1="2" y1="3" x2="5" y2="3" id="id_102" style="stroke: rgb(188, 195, 216);"></line>
<line class="st0" x1="9" y1="3" x2="12" y2="3" id="id_103" style="stroke: rgb(188, 195, 216);"></line>
<line class="st0" x1="16" y1="3" x2="19" y2="3" id="id_104" style="stroke: rgb(188, 195, 216);"></line>
<line class="st0" x1="12" y1="29" x2="15" y2="29" id="id_105" style="stroke: rgb(188, 195, 216);"></line>
<line class="st0" x1="19" y1="29" x2="22" y2="29" id="id_106" style="stroke: rgb(188, 195, 216);"></line>
<line class="st0" x1="26" y1="29" x2="29" y2="29" id="id_107" style="stroke: rgb(188, 195, 216);"></line>
<line class="st0" x1="19" y1="17" x2="22" y2="17" id="id_108" style="stroke: rgb(188, 195, 216);"></line>
<line class="st0" x1="26" y1="17" x2="29" y2="17" id="id_109" style="stroke: rgb(188, 195, 216);"></line>
<line class="st0" x1="2" y1="17" x2="5" y2="17" id="id_110" style="stroke: rgb(188, 195, 216);"></line>
<line class="st0" x1="9" y1="17" x2="12" y2="17" id="id_111" style="stroke: rgb(188, 195, 216);"></line>
</svg>