<svg width="64" height="64" viewBox="0 0 64 64" fill="none" xmlns="http://www.w3.org/2000/svg">
<path d="M60.89 59.55L32.89 3.54998C32.8518 3.46676 32.7974 3.39197 32.73 3.32998C32.6365 3.23007 32.5234 3.15042 32.3979 3.09597C32.2723 3.04152 32.1369 3.01343 32 3.01343C31.8632 3.01343 31.7278 3.04152 31.6022 3.09597C31.4766 3.15042 31.3636 3.23007 31.27 3.32998C31.2026 3.39197 31.1482 3.46676 31.11 3.54998L3.11003 59.55C3.03332 59.7022 2.99679 59.8715 3.00393 60.0418C3.01106 60.2122 3.06162 60.3778 3.15079 60.5231C3.23996 60.6684 3.36479 60.7885 3.51343 60.8719C3.66206 60.9554 3.82956 60.9995 4.00003 61H60C60.1705 60.9995 60.338 60.9554 60.4866 60.8719C60.6353 60.7885 60.7601 60.6684 60.8493 60.5231C60.9384 60.3778 60.989 60.2122 60.9961 60.0418C61.0033 59.8715 60.9667 59.7022 60.89 59.55ZM33 49.74H53.75L54.63 51.49H33V49.74ZM33 47.74V46H51.88L52.75 47.75L33 47.74ZM33 44V42.24H50L50.88 44H33ZM33 40.25V38.49H48.13L49 40.24L33 40.25ZM33 36.5V34.74H46.25L47.13 36.49L33 36.5ZM33 32.75V31H44.37L45.25 32.76L33 32.75ZM33 29V27.23H42.5L43.37 29H33ZM33 25.25V23.47H40.62L41.5 25.23L33 25.25ZM33 21.49V19.73H38.75L39.62 21.47L33 21.49ZM33 17.75V16H36.87L37.75 17.75H33ZM33 14V12.22H35L35.87 14H33ZM33 10.24V8.23998L34 10.24H33ZM33 53.51H55.63L56.51 55.27H33V53.51ZM31 8.23998V59H5.62003L31 8.23998ZM33 59V57.25H57.51L58.38 59H33Z" fill="#bcc3d8" id="id_101"></path>
</svg>